FILE "Panic! (1994)(Data East - Sega)(JP).img" BINARY
  TRACK 01 MODE1/2352
    INDEX 01 00:00:00
  TRACK 02 AUDIO
    PREGAP 00:02:00
    INDEX 01 24:02:07
  TRACK 03 AUDIO
    INDEX 00 25:34:70
    INDEX 01 25:36:70
  TRACK 04 AUDIO
    INDEX 00 27:20:02
    INDEX 01 27:22:02
  TRACK 05 AUDIO
    INDEX 00 27:54:19
    INDEX 01 27:56:19
  TRACK 06 AUDIO
    INDEX 00 28:29:52
    INDEX 01 28:31:52
  TRACK 07 AUDIO
    INDEX 00 29:06:45
    INDEX 01 29:08:45
  TRACK 08 AUDIO
    INDEX 00 29:37:30
    INDEX 01 29:39:30
  TRACK 09 AUDIO
    INDEX 00 30:12:49
    INDEX 01 30:14:49
  TRACK 10 AUDIO
    INDEX 00 30:46:50
    INDEX 01 30:48:50
  TRACK 11 AUDIO
    INDEX 00 31:15:42
    INDEX 01 31:17:42
  TRACK 12 AUDIO
    INDEX 00 31:47:30
    INDEX 01 31:49:30
  TRACK 13 AUDIO
    INDEX 00 32:15:27
    INDEX 01 32:17:27
  TRACK 14 AUDIO
    INDEX 00 32:34:06
    INDEX 01 32:36:06
  TRACK 15 AUDIO
    INDEX 00 33:01:12
    INDEX 01 33:03:12
  TRACK 16 AUDIO
    INDEX 00 33:36:22
    INDEX 01 33:38:22
  TRACK 17 AUDIO
    INDEX 00 34:01:38
    INDEX 01 34:03:38
  TRACK 18 AUDIO
    INDEX 00 34:37:54
    INDEX 01 34:39:54
  TRACK 19 AUDIO
    INDEX 00 35:11:37
    INDEX 01 35:13:37
  TRACK 20 AUDIO
    INDEX 00 35:45:32
    INDEX 01 35:47:32
  TRACK 21 AUDIO
    INDEX 00 36:23:40
    INDEX 01 36:25:40
  TRACK 22 AUDIO
    INDEX 00 37:02:34
    INDEX 01 37:04:34
  TRACK 23 AUDIO
    INDEX 00 37:39:19
    INDEX 01 37:41:19
  TRACK 24 AUDIO
    INDEX 00 38:16:38
    INDEX 01 38:18:38
  TRACK 25 AUDIO
    INDEX 00 38:54:07
    INDEX 01 38:56:07
  TRACK 26 AUDIO
    INDEX 00 39:24:56
    INDEX 01 39:26:56
  TRACK 27 AUDIO
    INDEX 00 40:04:40
    INDEX 01 40:06:40
  TRACK 28 AUDIO
    INDEX 00 40:44:49
    INDEX 01 40:46:49
  TRACK 29 AUDIO
    INDEX 00 41:20:50
    INDEX 01 41:22:50
  TRACK 30 AUDIO
    INDEX 00 41:58:57
    INDEX 01 42:00:57
  TRACK 31 AUDIO
    INDEX 00 42:35:08
    INDEX 01 42:37:08
  TRACK 32 AUDIO
    INDEX 00 43:08:14
    INDEX 01 43:10:14
  TRACK 33 AUDIO
    INDEX 00 43:47:10
    INDEX 01 43:49:10
  TRACK 34 AUDIO
    INDEX 00 44:21:11
    INDEX 01 44:23:11
  TRACK 35 AUDIO
    INDEX 00 44:53:21
    INDEX 01 44:55:21
  TRACK 36 AUDIO
    INDEX 00 45:29:06
    INDEX 01 45:31:06
  TRACK 37 AUDIO
    INDEX 00 46:07:07
    INDEX 01 46:09:07
  TRACK 38 AUDIO
    INDEX 00 46:41:08
    INDEX 01 46:43:08
  TRACK 39 AUDIO
    INDEX 00 47:13:09
    INDEX 01 47:15:09
  TRACK 40 AUDIO
    INDEX 00 47:55:10
    INDEX 01 47:57:10
  TRACK 41 AUDIO
    INDEX 00 48:33:21
    INDEX 01 48:35:21
  TRACK 42 AUDIO
    INDEX 00 48:51:24
    INDEX 01 48:53:24
  TRACK 43 AUDIO
    INDEX 00 49:26:67
    INDEX 01 49:28:67
  TRACK 44 AUDIO
    INDEX 00 50:02:28
    INDEX 01 50:04:28
  TRACK 45 AUDIO
    INDEX 00 51:04:14
    INDEX 01 51:06:14
  TRACK 46 AUDIO
    INDEX 00 54:21:50
    INDEX 01 54:23:50
